<?xml version="1.0" encoding="utf-8"?>
<!-- Generator: Adobe Illustrator 23.0.1, SVG Export Plug-In . SVG Version: 6.00 Build 0)  -->
<svg version="1.1" id="Слой_1" xmlns="http://www.w3.org/2000/svg" xmlns:xlink="http://www.w3.org/1999/xlink" x="0px" y="0px"
	 viewBox="0 0 512 512" style="enable-background:new 0 0 512 512;" xml:space="preserve">
<style type="text/css">
	.st0{fill:#ECECF1;}
	.st1{fill:#B4DAFE;}
	.st2{fill:#4A696F;}
	.st3{fill:#90CAF9;}
	.st4{fill:#384949;}
	.st5{fill:#666699;}
</style>
<path class="st0" d="M377.2,405.1l-35.7,12.6l-85.5-54l-81.9,51.9l-39.3-10.5C154,341.2,193.3,283.9,247,244c2.7-1.8,6-3,9-3
	s6.3,1.2,9,3C318.7,283.9,358,341.2,377.2,405.1z"/>
<path class="st1" d="M341.5,417.7l-85.5-54V241c3,0,6.3,1.2,9,3c53.7,39.9,93,97.2,112.2,161.1L341.5,417.7z"/>
<path class="st0" d="M384.7,79c-5.1,24.9-13.5,48.9-24.3,72l-57.3,43.8c-16.2,0-32.4-3.9-47.1-11.7c-2.7-1.2-5.4-2.7-8.1-4.5
	c-16.2-10.2-35.4-13.2-53.7-9.6l-41.7-16.2c-11.4-23.7-20.1-48.3-25.2-73.8c-0.9-4.5,0.3-9,3-12.6c3-3.3,7.2-5.4,11.7-5.4h228
	c4.5,0,8.7,2.1,11.7,5.4C384.4,70,385.6,74.5,384.7,79z"/>
<path class="st1" d="M303.1,194.8c-16.2,0-32.4-3.9-47.1-11.7V61h114c4.5,0,8.7,2.1,11.7,5.4c2.7,3.6,3.9,8.1,3,12.6
	c-5.1,24.9-13.5,48.9-24.3,72L303.1,194.8z"/>
<path class="st2" d="M421,22.5V76c0,8.4-6.6,15-15,15H106c-8.4,0-15-6.6-15-15V22.5H421z"/>
<path class="st3" d="M451,15c0,8.4-6.6,15-15,15H76c-8.4,0-15-6.6-15-15c0-8.4,6.6-15,15-15h360C444.4,0,451,6.6,451,15z"/>
<path class="st4" d="M421,22.5V76c0,8.4-6.6,15-15,15H256V22.5H421z"/>
<path class="st5" d="M451,15c0,8.4-6.6,15-15,15H256V0h180C444.4,0,451,6.6,451,15z"/>
<path class="st3" d="M325.6,161.2c-20.7,6.6-43.2,3.6-61.5-7.8c-2.7-1.5-5.4-3.3-8.1-4.2c-27.6-14.4-60.3-15.9-89.1-3.3l-15,6.6
	l7.8,14.4C181,206.2,211,241,247,268c2.7,2.1,5.7,3,9,3s6.3-0.9,9-3c40.8-30.3,73.2-70.2,96.3-117.6L325.6,161.2z"/>
<path class="st5" d="M265,268c-2.7,2.1-5.7,3-9,3V149.2c2.7,0.9,5.4,2.7,8.1,4.2c18.3,11.4,40.8,14.4,61.5,7.8l35.7-10.8
	C338.2,197.8,305.8,237.7,265,268z"/>
<path class="st3" d="M379,410.5l-1.8-5.4l-113.1-71.7c-2.7-1.8-5.4-2.4-8.1-2.4c-2.7,0-5.4,0.6-8.1,2.4l-113.1,71.7l-1.8,5.4
	c-2.1,7.2-4.2,14.7-5.7,22.5c-0.9,4.5,0.3,9,3,12.6c3,3.3,7.2,5.4,11.7,5.4h228c4.5,0,8.7-2.1,11.7-5.4c2.7-3.6,3.9-8.1,3-12.6
	C383.2,425.2,381.1,417.7,379,410.5z"/>
<path class="st5" d="M379,410.5c2.1,7.2,4.2,14.7,5.7,22.5c0.9,4.5-0.3,9-3,12.6c-3,3.3-7.2,5.4-11.7,5.4H256V331
	c2.7,0,5.4,0.6,8.1,2.4l113.1,71.7L379,410.5z"/>
<path class="st3" d="M271,256v90c0,8.4-6.6,15-15,15s-15-6.6-15-15v-90c0-8.4,6.6-15,15-15S271,247.6,271,256z"/>
<path class="st5" d="M256,361V241c8.4,0,15,6.6,15,15v90C271,354.4,264.4,361,256,361z"/>
<path class="st2" d="M421,436v52.9H91V436c0-8.4,6.6-15,15-15h300C414.4,421,421,427.6,421,436z"/>
<path class="st4" d="M421,436v52.9H256V421h150C414.4,421,421,427.6,421,436z"/>
<path class="st3" d="M451,497c0,8.4-6.6,15-15,15H76c-8.4,0-15-6.6-15-15c0-8.4,6.6-15,15-15h360C444.4,482,451,488.6,451,497z"/>
<path class="st5" d="M451,497c0,8.4-6.6,15-15,15H256v-30h180C444.4,482,451,488.6,451,497z"/>
</svg>
